<?xml version="1.0" encoding="UTF-8" standalone="no"?><svg xmlns="http://www.w3.org/2000/svg" xmlns:xlink="http://www.w3.org/1999/xlink" contentScriptType="application/ecmascript" contentStyleType="text/css" height="309px" preserveAspectRatio="none" style="width:563px;height:309px;background:#FFFFFF;" version="1.1" viewBox="0 0 563 309" width="563px" zoomAndPan="magnify"><defs><filter height="300%" id="fskhw50cfoikk" width="300%" x="-1" y="-1"><feGaussianBlur result="blurOut" stdDeviation="2.0"/><feColorMatrix in="blurOut" result="blurOut2" type="matrix" values="0 0 0 0 0 0 0 0 0 0 0 0 0 0 0 0 0 0 .4 0"/><feOffset dx="4.0" dy="4.0" in="blurOut2" result="blurOut3"/><feBlend in="SourceGraphic" in2="blurOut3" mode="normal"/></filter></defs><g><line style="stroke:#A80036;stroke-width:1.0;stroke-dasharray:5.0,5.0;" x1="45" x2="45" y1="88.2969" y2="224.8281"/><line style="stroke:#A80036;stroke-width:1.0;stroke-dasharray:5.0,5.0;" x1="238.5" x2="238.5" y1="88.2969" y2="224.8281"/><line style="stroke:#A80036;stroke-width:1.0;stroke-dasharray:5.0,5.0;" x1="385" x2="385" y1="88.2969" y2="224.8281"/><line style="stroke:#A80036;stroke-width:1.0;stroke-dasharray:5.0,5.0;" x1="531.5" x2="531.5" y1="88.2969" y2="224.8281"/><text fill="#000000" font-family="sans-serif" font-size="14" lengthAdjust="spacing" textLength="74" x="5" y="84.9951">Водитель</text><ellipse cx="45" cy="15" fill="#FEFECE" filter="url(#fskhw50cfoikk)" rx="8" ry="8" style="stroke:#A80036;stroke-width:2.0;"/><path d="M45,23 L45,50 M32,31 L58,31 M45,50 L32,65 M45,50 L58,65 " fill="none" filter="url(#fskhw50cfoikk)" style="stroke:#A80036;stroke-width:2.0;"/><text fill="#000000" font-family="sans-serif" font-size="14" lengthAdjust="spacing" textLength="74" x="5" y="236.8232">Водитель</text><ellipse cx="45" cy="250.125" fill="#FEFECE" filter="url(#fskhw50cfoikk)" rx="8" ry="8" style="stroke:#A80036;stroke-width:2.0;"/><path d="M45,258.125 L45,285.125 M32,266.125 L58,266.125 M45,285.125 L32,300.125 M45,285.125 L58,300.125 " fill="none" filter="url(#fskhw50cfoikk)" style="stroke:#A80036;stroke-width:2.0;"/><text fill="#000000" font-family="sans-serif" font-size="14" lengthAdjust="spacing" textLength="141" x="165.5" y="84.9951">userRatingsStorage</text><path d="M221,36 C221,26 239,26 239,26 C239,26 257,26 257,36 L257,62 C257,72 239,72 239,72 C239,72 221,72 221,62 L221,36 " fill="#FEFECE" filter="url(#fskhw50cfoikk)" style="stroke:#000000;stroke-width:1.5;"/><path d="M221,36 C221,46 239,46 239,46 C239,46 257,46 257,36 " fill="none" style="stroke:#000000;stroke-width:1.5;"/><text fill="#000000" font-family="sans-serif" font-size="14" lengthAdjust="spacing" textLength="141" x="165.5" y="236.8232">userRatingsStorage</text><path d="M221,250.125 C221,240.125 239,240.125 239,240.125 C239,240.125 257,240.125 257,250.125 L257,276.125 C257,286.125 239,286.125 239,286.125 C239,286.125 221,286.125 221,276.125 L221,250.125 " fill="#FEFECE" filter="url(#fskhw50cfoikk)" style="stroke:#000000;stroke-width:1.5;"/><path d="M221,250.125 C221,260.125 239,260.125 239,260.125 C239,260.125 257,260.125 257,250.125 " fill="none" style="stroke:#000000;stroke-width:1.5;"/><text fill="#000000" font-family="sans-serif" font-size="14" lengthAdjust="spacing" textLength="84" x="340" y="84.9951">userRatings</text><path d="M367,36 C367,26 385,26 385,26 C385,26 403,26 403,36 L403,62 C403,72 385,72 385,72 C385,72 367,72 367,62 L367,36 " fill="#FEFECE" filter="url(#fskhw50cfoikk)" style="stroke:#000000;stroke-width:1.5;"/><path d="M367,36 C367,46 385,46 385,46 C385,46 403,46 403,36 " fill="none" style="stroke:#000000;stroke-width:1.5;"/><text fill="#000000" font-family="sans-serif" font-size="14" lengthAdjust="spacing" textLength="84" x="340" y="236.8232">userRatings</text><path d="M367,250.125 C367,240.125 385,240.125 385,240.125 C385,240.125 403,240.125 403,250.125 L403,276.125 C403,286.125 385,286.125 385,286.125 C385,286.125 367,286.125 367,276.125 L367,250.125 " fill="#FEFECE" filter="url(#fskhw50cfoikk)" style="stroke:#000000;stroke-width:1.5;"/><path d="M367,250.125 C367,260.125 385,260.125 385,260.125 C385,260.125 403,260.125 403,250.125 " fill="none" style="stroke:#000000;stroke-width:1.5;"/><text fill="#000000" font-family="sans-serif" font-size="14" lengthAdjust="spacing" textLength="55" x="501.5" y="84.9951">Клиент</text><ellipse cx="532" cy="15" fill="#FEFECE" filter="url(#fskhw50cfoikk)" rx="8" ry="8" style="stroke:#A80036;stroke-width:2.0;"/><path d="M532,23 L532,50 M519,31 L545,31 M532,50 L519,65 M532,50 L545,65 " fill="none" filter="url(#fskhw50cfoikk)" style="stroke:#A80036;stroke-width:2.0;"/><text fill="#000000" font-family="sans-serif" font-size="14" lengthAdjust="spacing" textLength="55" x="501.5" y="236.8232">Клиент</text><ellipse cx="532" cy="250.125" fill="#FEFECE" filter="url(#fskhw50cfoikk)" rx="8" ry="8" style="stroke:#A80036;stroke-width:2.0;"/><path d="M532,258.125 L532,285.125 M519,266.125 L545,266.125 M532,285.125 L519,300.125 M532,285.125 L545,300.125 " fill="none" filter="url(#fskhw50cfoikk)" style="stroke:#A80036;stroke-width:2.0;"/><polygon fill="#A80036" points="227,115.4297,237,119.4297,227,123.4297,231,119.4297" style="stroke:#A80036;stroke-width:1.0;"/><line style="stroke:#A80036;stroke-width:1.0;" x1="45" x2="233" y1="119.4297" y2="119.4297"/><text fill="#000000" font-family="sans-serif" font-size="13" lengthAdjust="spacing" textLength="170" x="52" y="114.3638">POST /v1/order/user-rating</text><polygon fill="#A80036" points="227,144.5625,237,148.5625,227,152.5625,231,148.5625" style="stroke:#A80036;stroke-width:1.0;"/><line style="stroke:#A80036;stroke-width:1.0;" x1="45" x2="233" y1="148.5625" y2="148.5625"/><text fill="#000000" font-family="sans-serif" font-size="13" lengthAdjust="spacing" textLength="162" x="52" y="143.4966">GET /v1/order/user-rating</text><polygon fill="#A80036" points="373,173.6953,383,177.6953,373,181.6953,377,177.6953" style="stroke:#A80036;stroke-width:1.0;"/><line style="stroke:#A80036;stroke-width:1.0;" x1="239" x2="379" y1="177.6953" y2="177.6953"/><text fill="#000000" font-family="sans-serif" font-size="13" lengthAdjust="spacing" textLength="122" x="246" y="172.6294">PUT /v1/user/rating</text><polygon fill="#A80036" points="396,202.8281,386,206.8281,396,210.8281,392,206.8281" style="stroke:#A80036;stroke-width:1.0;"/><line style="stroke:#A80036;stroke-width:1.0;stroke-dasharray:2.0,2.0;" x1="390" x2="531" y1="206.8281" y2="206.8281"/><text fill="#000000" font-family="sans-serif" font-size="13" lengthAdjust="spacing" textLength="123" x="402" y="201.7622">GET /v1/user/rating</text><!--MD5=[c0852e459159d508c32d21a19a713af3]
@startuml
actor Водитель
database userRatingsStorage
database userRatings
actor Клиент

Водитель -> userRatingsStorage: POST /v1/order/user-rating
Водитель -> userRatingsStorage: GET /v1/order/user-rating
userRatingsStorage -> userRatings: PUT /v1/user/rating
Клиент - -> userRatings: GET /v1/user/rating
@enduml

PlantUML version 1.2021.7(Sun May 23 12:40:07 UTC 2021)
(GPL source distribution)
Java Runtime: Java(TM) SE Runtime Environment
JVM: Java HotSpot(TM) 64-Bit Server VM
Default Encoding: UTF-8
Language: en
Country: US
--></g></svg>