<?xml version="1.0" encoding="UTF-8" standalone="no"?><svg xmlns="http://www.w3.org/2000/svg" xmlns:xlink="http://www.w3.org/1999/xlink" contentScriptType="application/ecmascript" contentStyleType="text/css" height="309px" preserveAspectRatio="none" style="width:482px;height:309px;background:#FFFFFF;" version="1.1" viewBox="0 0 482 309" width="482px" zoomAndPan="magnify"><defs><filter height="300%" id="f9iwk5zjy37e2" width="300%" x="-1" y="-1"><feGaussianBlur result="blurOut" stdDeviation="2.0"/><feColorMatrix in="blurOut" result="blurOut2" type="matrix" values="0 0 0 0 0 0 0 0 0 0 0 0 0 0 0 0 0 0 .4 0"/><feOffset dx="4.0" dy="4.0" in="blurOut2" result="blurOut3"/><feBlend in="SourceGraphic" in2="blurOut3" mode="normal"/></filter></defs><g><line style="stroke:#A80036;stroke-width:1.0;stroke-dasharray:5.0,5.0;" x1="30" x2="30" y1="88.2969" y2="224.8281"/><line style="stroke:#A80036;stroke-width:1.0;stroke-dasharray:5.0,5.0;" x1="200.5" x2="200.5" y1="88.2969" y2="224.8281"/><line style="stroke:#A80036;stroke-width:1.0;stroke-dasharray:5.0,5.0;" x1="330" x2="330" y1="88.2969" y2="224.8281"/><line style="stroke:#A80036;stroke-width:1.0;stroke-dasharray:5.0,5.0;" x1="459.5" x2="459.5" y1="88.2969" y2="224.8281"/><text fill="#000000" font-family="sans-serif" font-size="14" lengthAdjust="spacing" textLength="44" x="5" y="84.9951">Driver</text><ellipse cx="30" cy="15" fill="#FEFECE" filter="url(#f9iwk5zjy37e2)" rx="8" ry="8" style="stroke:#A80036;stroke-width:2.0;"/><path d="M30,23 L30,50 M17,31 L43,31 M30,50 L17,65 M30,50 L43,65 " fill="none" filter="url(#f9iwk5zjy37e2)" style="stroke:#A80036;stroke-width:2.0;"/><text fill="#000000" font-family="sans-serif" font-size="14" lengthAdjust="spacing" textLength="44" x="5" y="236.8232">Driver</text><ellipse cx="30" cy="250.125" fill="#FEFECE" filter="url(#f9iwk5zjy37e2)" rx="8" ry="8" style="stroke:#A80036;stroke-width:2.0;"/><path d="M30,258.125 L30,285.125 M17,266.125 L43,266.125 M30,285.125 L17,300.125 M30,285.125 L43,300.125 " fill="none" filter="url(#f9iwk5zjy37e2)" style="stroke:#A80036;stroke-width:2.0;"/><text fill="#000000" font-family="sans-serif" font-size="14" lengthAdjust="spacing" textLength="73" x="161.5" y="84.9951">orderBase</text><path d="M183,36 C183,26 201,26 201,26 C201,26 219,26 219,36 L219,62 C219,72 201,72 201,72 C201,72 183,72 183,62 L183,36 " fill="#FEFECE" filter="url(#f9iwk5zjy37e2)" style="stroke:#000000;stroke-width:1.5;"/><path d="M183,36 C183,46 201,46 201,46 C201,46 219,46 219,36 " fill="none" style="stroke:#000000;stroke-width:1.5;"/><text fill="#000000" font-family="sans-serif" font-size="14" lengthAdjust="spacing" textLength="73" x="161.5" y="236.8232">orderBase</text><path d="M183,250.125 C183,240.125 201,240.125 201,240.125 C201,240.125 219,240.125 219,250.125 L219,276.125 C219,286.125 201,286.125 201,286.125 C201,286.125 183,286.125 183,276.125 L183,250.125 " fill="#FEFECE" filter="url(#f9iwk5zjy37e2)" style="stroke:#000000;stroke-width:1.5;"/><path d="M183,250.125 C183,260.125 201,260.125 201,260.125 C201,260.125 219,260.125 219,250.125 " fill="none" style="stroke:#000000;stroke-width:1.5;"/><text fill="#000000" font-family="sans-serif" font-size="14" lengthAdjust="spacing" textLength="64" x="295" y="84.9951">userBase</text><path d="M312,36 C312,26 330,26 330,26 C330,26 348,26 348,36 L348,62 C348,72 330,72 330,72 C330,72 312,72 312,62 L312,36 " fill="#FEFECE" filter="url(#f9iwk5zjy37e2)" style="stroke:#000000;stroke-width:1.5;"/><path d="M312,36 C312,46 330,46 330,46 C330,46 348,46 348,36 " fill="none" style="stroke:#000000;stroke-width:1.5;"/><text fill="#000000" font-family="sans-serif" font-size="14" lengthAdjust="spacing" textLength="64" x="295" y="236.8232">userBase</text><path d="M312,250.125 C312,240.125 330,240.125 330,240.125 C330,240.125 348,240.125 348,250.125 L348,276.125 C348,286.125 330,286.125 330,286.125 C330,286.125 312,286.125 312,276.125 L312,250.125 " fill="#FEFECE" filter="url(#f9iwk5zjy37e2)" style="stroke:#000000;stroke-width:1.5;"/><path d="M312,250.125 C312,260.125 330,260.125 330,260.125 C330,260.125 348,260.125 348,250.125 " fill="none" style="stroke:#000000;stroke-width:1.5;"/><text fill="#000000" font-family="sans-serif" font-size="14" lengthAdjust="spacing" textLength="31" x="441.5" y="84.9951">User</text><ellipse cx="460" cy="15" fill="#FEFECE" filter="url(#f9iwk5zjy37e2)" rx="8" ry="8" style="stroke:#A80036;stroke-width:2.0;"/><path d="M460,23 L460,50 M447,31 L473,31 M460,50 L447,65 M460,50 L473,65 " fill="none" filter="url(#f9iwk5zjy37e2)" style="stroke:#A80036;stroke-width:2.0;"/><text fill="#000000" font-family="sans-serif" font-size="14" lengthAdjust="spacing" textLength="31" x="441.5" y="236.8232">User</text><ellipse cx="460" cy="250.125" fill="#FEFECE" filter="url(#f9iwk5zjy37e2)" rx="8" ry="8" style="stroke:#A80036;stroke-width:2.0;"/><path d="M460,258.125 L460,285.125 M447,266.125 L473,266.125 M460,285.125 L447,300.125 M460,285.125 L473,300.125 " fill="none" filter="url(#f9iwk5zjy37e2)" style="stroke:#A80036;stroke-width:2.0;"/><polygon fill="#A80036" points="341,115.4297,331,119.4297,341,123.4297,337,119.4297" style="stroke:#A80036;stroke-width:1.0;"/><line style="stroke:#A80036;stroke-width:1.0;" x1="335" x2="459" y1="119.4297" y2="119.4297"/><text fill="#000000" font-family="sans-serif" font-size="13" lengthAdjust="spacing" textLength="106" x="347" y="114.3638">GET /user_rating</text><polygon fill="#A80036" points="318,144.5625,328,148.5625,318,152.5625,322,148.5625" style="stroke:#A80036;stroke-width:1.0;"/><line style="stroke:#A80036;stroke-width:1.0;" x1="30" x2="324" y1="148.5625" y2="148.5625"/><text fill="#000000" font-family="sans-serif" font-size="13" lengthAdjust="spacing" textLength="106" x="37" y="143.4966">GET /user_rating</text><polygon fill="#A80036" points="189,173.6953,199,177.6953,189,181.6953,193,177.6953" style="stroke:#A80036;stroke-width:1.0;"/><line style="stroke:#A80036;stroke-width:1.0;" x1="30" x2="195" y1="177.6953" y2="177.6953"/><text fill="#000000" font-family="sans-serif" font-size="13" lengthAdjust="spacing" textLength="147" x="37" y="172.6294">POST /orders/complete</text><polygon fill="#A80036" points="212,202.8281,202,206.8281,212,210.8281,208,206.8281" style="stroke:#A80036;stroke-width:1.0;"/><line style="stroke:#A80036;stroke-width:1.0;" x1="206" x2="329" y1="206.8281" y2="206.8281"/><text fill="#000000" font-family="sans-serif" font-size="13" lengthAdjust="spacing" textLength="105" x="218" y="201.7622">PUT /user_rating</text><!--MD5=[7d35b1d9c3a1d96a27c874b52ab86262]
@startuml
actor Driver
database orderBase
database userBase
actor User
User -> userBase: GET /user_rating
Driver -> userBase: GET /user_rating
Driver -> orderBase: POST /orders/complete
userBase-> orderBase: PUT /user_rating
@enduml

PlantUML version 1.2021.7(Sun May 23 12:40:07 UTC 2021)
(GPL source distribution)
Java Runtime: Java(TM) SE Runtime Environment
JVM: Java HotSpot(TM) 64-Bit Server VM
Default Encoding: UTF-8
Language: en
Country: US
--></g></svg>